<svg width="315" height="170" viewBox="0 0 315 170" fill="none" xmlns="http://www.w3.org/2000/svg">
<rect y="20" width="305" height="150" fill="black"/>
<path d="M34.088 58.496H24.344V50.096H34.088V41.472C34.088 36.768 35.432 33.2213 38.12 30.832C40.8827 28.368 44.8773 27.136 50.104 27.136C51 27.136 52.008 27.2107 53.128 27.36C54.3227 27.5093 55.368 27.7333 56.264 28.032V36.32C55.4427 36.0213 54.5467 35.8347 53.576 35.76C52.6053 35.6107 51.7093 35.536 50.888 35.536C48.5733 35.536 46.7813 35.984 45.512 36.88C44.2427 37.776 43.608 39.4933 43.608 42.032V50.096H54.808V58.496H43.608V108H34.088V58.496ZM107.885 107.776C106.242 108.747 103.965 109.232 101.053 109.232C98.5886 109.232 96.61 108.56 95.1166 107.216C93.698 105.797 92.9886 103.52 92.9886 100.384C90.3753 103.52 87.314 105.797 83.8046 107.216C80.37 108.56 76.6366 109.232 72.6046 109.232C69.9913 109.232 67.49 108.933 65.1006 108.336C62.786 107.739 60.77 106.805 59.0526 105.536C57.3353 104.267 55.954 102.624 54.9086 100.608C53.938 98.5173 53.4526 96.016 53.4526 93.104C53.4526 89.8187 54.0126 87.1307 55.1326 85.04C56.2526 82.9493 57.7086 81.2693 59.5006 80C61.3673 78.656 63.458 77.648 65.7726 76.976C68.162 76.304 70.5886 75.744 73.0526 75.296C75.666 74.7733 78.13 74.4 80.4446 74.176C82.834 73.8773 84.9246 73.504 86.7166 73.056C88.5086 72.5333 89.9273 71.824 90.9726 70.928C92.018 69.9573 92.5406 68.576 92.5406 66.784C92.5406 64.6933 92.13 63.0133 91.3086 61.744C90.562 60.4747 89.554 59.504 88.2846 58.832C87.09 58.16 85.7086 57.712 84.1406 57.488C82.6473 57.264 81.154 57.152 79.6606 57.152C75.6286 57.152 72.2686 57.936 69.5806 59.504C66.8926 60.9973 65.4366 63.872 65.2126 68.128H55.6926C55.842 64.544 56.5886 61.52 57.9326 59.056C59.2766 56.592 61.0686 54.6133 63.3086 53.12C65.5486 51.552 68.0873 50.432 70.9246 49.76C73.8366 49.088 76.9353 48.752 80.2206 48.752C82.834 48.752 85.41 48.9387 87.9486 49.312C90.562 49.6853 92.914 50.4693 95.0046 51.664C97.0953 52.784 98.7753 54.3893 100.045 56.48C101.314 58.5707 101.949 61.296 101.949 64.656V94.448C101.949 96.688 102.061 98.3307 102.285 99.376C102.583 100.421 103.479 100.944 104.973 100.944C105.794 100.944 106.765 100.757 107.885 100.384V107.776ZM92.4286 78.096C91.234 78.992 89.666 79.664 87.7246 80.112C85.7833 80.4853 83.73 80.8213 81.5646 81.12C79.474 81.344 77.346 81.6427 75.1806 82.016C73.0153 82.3147 71.074 82.8373 69.3566 83.584C67.6393 84.3307 66.2206 85.4133 65.1006 86.832C64.0553 88.176 63.5326 90.0427 63.5326 92.432C63.5326 94 63.8313 95.344 64.4286 96.464C65.1006 97.5093 65.922 98.368 66.8926 99.04C67.938 99.712 69.1326 100.197 70.4766 100.496C71.8206 100.795 73.2393 100.944 74.7326 100.944C77.8686 100.944 80.5566 100.533 82.7966 99.712C85.0366 98.816 86.866 97.7333 88.2846 96.464C89.7033 95.12 90.7486 93.7013 91.4206 92.208C92.0926 90.64 92.4286 89.184 92.4286 87.84V78.096ZM123.241 50.096H134.777V58.496H123.241V94.448C123.241 95.568 123.316 96.464 123.465 97.136C123.689 97.808 124.062 98.3307 124.585 98.704C125.108 99.0773 125.817 99.3387 126.713 99.488C127.684 99.5627 128.916 99.6 130.409 99.6H134.777V108H127.497C125.033 108 122.905 107.851 121.113 107.552C119.396 107.179 117.977 106.544 116.857 105.648C115.812 104.752 115.028 103.483 114.505 101.84C113.982 100.197 113.721 98.032 113.721 95.344V58.496H103.865V50.096H113.721V32.736H123.241V50.096ZM148.713 39.68H139.193V28.032H148.713V39.68ZM139.193 50.096H148.713V108H139.193V50.096ZM156.741 28.032H166.261V58.608H166.485C167.232 56.816 168.277 55.3227 169.621 54.128C170.965 52.8587 172.458 51.8507 174.101 51.104C175.818 50.2827 177.573 49.6853 179.365 49.312C181.232 48.9387 183.024 48.752 184.741 48.752C188.549 48.752 191.722 49.2747 194.261 50.32C196.8 51.3653 198.853 52.8213 200.421 54.688C201.989 56.5547 203.072 58.7947 203.669 61.408C204.341 63.9467 204.677 66.784 204.677 69.92V108H195.157V68.8C195.157 65.216 194.112 62.3787 192.021 60.288C189.93 58.1973 187.056 57.152 183.397 57.152C180.485 57.152 177.946 57.6 175.781 58.496C173.69 59.392 171.936 60.6613 170.517 62.304C169.098 63.9467 168.016 65.888 167.269 68.128C166.597 70.2933 166.261 72.6827 166.261 75.296V108H156.741V28.032Z" fill="white"/>
<rect x="46" y="97" width="259" height="73" fill="black"/>
<path d="M59.742 142.744C59.8167 144.835 60.302 146.627 61.198 148.12C62.094 149.539 63.2513 150.696 64.67 151.592C66.1633 152.413 67.806 153.011 69.598 153.384C71.4647 153.757 73.3687 153.944 75.31 153.944C76.8033 153.944 78.3713 153.832 80.014 153.608C81.6567 153.384 83.15 152.973 84.494 152.376C85.9127 151.779 87.07 150.92 87.966 149.8C88.862 148.605 89.31 147.112 89.31 145.32C89.31 142.856 88.3767 140.989 86.51 139.72C84.6433 138.451 82.2913 137.443 79.454 136.696C76.6913 135.875 73.6673 135.165 70.382 134.568C67.0967 133.896 64.0353 133 61.198 131.88C58.4353 130.685 56.1207 129.043 54.254 126.952C52.3873 124.861 51.454 121.949 51.454 118.216C51.454 115.304 52.0887 112.803 53.358 110.712C54.702 108.621 56.382 106.941 58.398 105.672C60.4887 104.328 62.8033 103.357 65.342 102.76C67.9553 102.088 70.5313 101.752 73.07 101.752C76.3553 101.752 79.3793 102.051 82.142 102.648C84.9047 103.171 87.3313 104.141 89.422 105.56C91.5873 106.904 93.3047 108.771 94.574 111.16C95.8433 113.475 96.59 116.387 96.814 119.896H87.294C87.1447 118.029 86.6593 116.499 85.838 115.304C85.0167 114.035 83.9713 113.027 82.702 112.28C81.4327 111.533 80.014 111.011 78.446 110.712C76.9527 110.339 75.422 110.152 73.854 110.152C72.4353 110.152 70.9793 110.264 69.486 110.488C68.0673 110.712 66.7607 111.123 65.566 111.72C64.3713 112.243 63.4007 112.989 62.654 113.96C61.9073 114.856 61.534 116.051 61.534 117.544C61.534 119.187 62.094 120.568 63.214 121.688C64.4087 122.733 65.902 123.629 67.694 124.376C69.486 125.048 71.502 125.645 73.742 126.168C75.982 126.616 78.222 127.101 80.462 127.624C82.8513 128.147 85.166 128.781 87.406 129.528C89.7207 130.275 91.7367 131.283 93.454 132.552C95.246 133.747 96.6647 135.277 97.71 137.144C98.83 139.011 99.39 141.325 99.39 144.088C99.39 147.597 98.6433 150.509 97.15 152.824C95.7313 155.139 93.8273 157.005 91.438 158.424C89.1233 159.843 86.4727 160.813 83.486 161.336C80.574 161.933 77.662 162.232 74.75 162.232C71.5393 162.232 68.478 161.896 65.566 161.224C62.654 160.552 60.078 159.469 57.838 157.976C55.598 156.408 53.806 154.392 52.462 151.928C51.118 149.389 50.3713 146.328 50.222 142.744H59.742ZM154.494 160.776C152.851 161.747 150.574 162.232 147.662 162.232C145.198 162.232 143.219 161.56 141.726 160.216C140.307 158.797 139.598 156.52 139.598 153.384C136.985 156.52 133.923 158.797 130.414 160.216C126.979 161.56 123.246 162.232 119.214 162.232C116.601 162.232 114.099 161.933 111.71 161.336C109.395 160.739 107.379 159.805 105.662 158.536C103.945 157.267 102.563 155.624 101.518 153.608C100.547 151.517 100.062 149.016 100.062 146.104C100.062 142.819 100.622 140.131 101.742 138.04C102.862 135.949 104.318 134.269 106.11 133C107.977 131.656 110.067 130.648 112.382 129.976C114.771 129.304 117.198 128.744 119.662 128.296C122.275 127.773 124.739 127.4 127.054 127.176C129.443 126.877 131.534 126.504 133.326 126.056C135.118 125.533 136.537 124.824 137.582 123.928C138.627 122.957 139.15 121.576 139.15 119.784C139.15 117.693 138.739 116.013 137.918 114.744C137.171 113.475 136.163 112.504 134.894 111.832C133.699 111.16 132.318 110.712 130.75 110.488C129.257 110.264 127.763 110.152 126.27 110.152C122.238 110.152 118.878 110.936 116.19 112.504C113.502 113.997 112.046 116.872 111.822 121.128H102.302C102.451 117.544 103.198 114.52 104.542 112.056C105.886 109.592 107.678 107.613 109.918 106.12C112.158 104.552 114.697 103.432 117.534 102.76C120.446 102.088 123.545 101.752 126.83 101.752C129.443 101.752 132.019 101.939 134.558 102.312C137.171 102.685 139.523 103.469 141.614 104.664C143.705 105.784 145.385 107.389 146.654 109.48C147.923 111.571 148.558 114.296 148.558 117.656V147.448C148.558 149.688 148.67 151.331 148.894 152.376C149.193 153.421 150.089 153.944 151.582 153.944C152.403 153.944 153.374 153.757 154.494 153.384V160.776ZM139.038 131.096C137.843 131.992 136.275 132.664 134.334 133.112C132.393 133.485 130.339 133.821 128.174 134.12C126.083 134.344 123.955 134.643 121.79 135.016C119.625 135.315 117.683 135.837 115.966 136.584C114.249 137.331 112.83 138.413 111.71 139.832C110.665 141.176 110.142 143.043 110.142 145.432C110.142 147 110.441 148.344 111.038 149.464C111.71 150.509 112.531 151.368 113.502 152.04C114.547 152.712 115.742 153.197 117.086 153.496C118.43 153.795 119.849 153.944 121.342 153.944C124.478 153.944 127.166 153.533 129.406 152.712C131.646 151.816 133.475 150.733 134.894 149.464C136.313 148.12 137.358 146.701 138.03 145.208C138.702 143.64 139.038 142.184 139.038 140.84V131.096ZM156.634 81.032H166.154V111.608H166.378C167.125 109.816 168.17 108.323 169.514 107.128C170.858 105.859 172.352 104.851 173.994 104.104C175.712 103.283 177.466 102.685 179.258 102.312C181.125 101.939 182.917 101.752 184.634 101.752C188.442 101.752 191.616 102.275 194.154 103.32C196.693 104.365 198.746 105.821 200.314 107.688C201.882 109.555 202.965 111.795 203.562 114.408C204.234 116.947 204.57 119.784 204.57 122.92V161H195.05V121.8C195.05 118.216 194.005 115.379 191.914 113.288C189.824 111.197 186.949 110.152 183.29 110.152C180.378 110.152 177.84 110.6 175.674 111.496C173.584 112.392 171.829 113.661 170.41 115.304C168.992 116.947 167.909 118.888 167.162 121.128C166.49 123.293 166.154 125.683 166.154 128.296V161H156.634V81.032ZM222.229 92.68H212.709V81.032H222.229V92.68ZM212.709 103.096H222.229V161H212.709V103.096ZM230.257 103.096H239.217V112.28H239.441C243.398 105.261 249.67 101.752 258.257 101.752C262.065 101.752 265.238 102.275 267.777 103.32C270.315 104.365 272.369 105.821 273.937 107.688C275.505 109.555 276.587 111.795 277.185 114.408C277.857 116.947 278.193 119.784 278.193 122.92V161H268.673V121.8C268.673 118.216 267.627 115.379 265.537 113.288C263.446 111.197 260.571 110.152 256.913 110.152C254.001 110.152 251.462 110.6 249.297 111.496C247.206 112.392 245.451 113.661 244.033 115.304C242.614 116.947 241.531 118.888 240.785 121.128C240.113 123.293 239.777 125.683 239.777 128.296V161H230.257V103.096Z" fill="white"/>
</svg>
